<?xml version='1.0' encoding='UTF-8'?>
<svg xmlns="http://www.w3.org/2000/svg" version="1.1" width="123" height="130" viewBox="0.0000 0.0000 123.0000 130.0000">
<path d="M0 0 C10.56 0 21.12 0 32 0 C32.09024549 16.50694227 32.16394979 33.01367452 32.20724869 49.52079487 C32.22788623 57.18509557 32.25602932 64.84923228 32.30175781 72.51342773 C32.34158943 79.19246932 32.36742415 85.87139216 32.37635398 92.55054921 C32.38157506 96.08815818 32.39387048 99.6254274 32.42292023 103.16292763 C32.45506393 107.10909077 32.45596177 111.05491958 32.45410156 115.0012207 C32.47567322 116.76635765 32.47567322 116.76635765 32.49768066 118.56715393 C32.49218201 119.63987549 32.48668335 120.71259705 32.48101807 121.81782532 C32.48470524 122.75160161 32.48839241 123.6853779 32.49219131 124.64745045 C32 127 32 127 30.17617416 128.80259991 C27.01426851 130.54238075 24.41654264 130.33708864 20.828125 130.29296875 C19.8044986 130.28660149 19.8044986 130.28660149 18.76019287 130.28010559 C16.58971996 130.26336972 14.42019021 130.22572959 12.25 130.1875 C10.77475303 130.17244646 9.29949145 130.15875922 7.82421875 130.14648438 C4.21584156 130.11348377 0.6080129 130.06173767 -3 130 C-2.6757435 129.28527684 -2.35148701 128.57055368 -2.01740456 127.83417225 C-0.96187541 124.89379677 -0.74027289 122.7619216 -0.7215271 119.65324402 C-0.71036362 118.59460144 -0.69920013 117.53595886 -0.68769836 116.44523621 C-0.68553818 115.29437027 -0.68337799 114.14350433 -0.68115234 112.95776367 C-0.67110672 111.73783722 -0.6610611 110.51791077 -0.65071106 109.26101685 C-0.62514966 105.92460543 -0.60827603 102.58836345 -0.59528303 99.25189376 C-0.5796315 95.76181835 -0.55284775 92.27182867 -0.5272522 88.78181458 C-0.48050014 82.17693549 -0.44373879 75.57204021 -0.41057932 68.96708041 C-0.37233264 61.44589374 -0.32292917 53.92479324 -0.27259517 46.40367925 C-0.16932844 30.93584221 -0.08152374 15.46796924 0 0 Z " fill="#DEDFDF" transform="translate(91,0)"/>
<path d="M0 0 C1.0236264 0.00848969 1.0236264 0.00848969 2.06793213 0.01715088 C4.23872262 0.03946864 6.40783706 0.08964992 8.578125 0.140625 C10.0533615 0.16069624 11.52862399 0.17894593 13.00390625 0.1953125 C16.61252001 0.2393162 20.22015881 0.30830917 23.828125 0.390625 C23.828125 1.050625 23.828125 1.710625 23.828125 2.390625 C23.168125 2.390625 22.508125 2.390625 21.828125 2.390625 C21.498125 44.630625 21.168125 86.870625 20.828125 130.390625 C10.268125 130.390625 -0.291875 130.390625 -11.171875 130.390625 C-11.26215038 114.03133708 -11.33584224 97.67226152 -11.37912369 81.31279373 C-11.39975368 73.71690202 -11.42788239 66.12117599 -11.47363281 58.52539062 C-11.51348749 51.90530308 -11.53930464 45.28533551 -11.54822898 38.66513133 C-11.55344614 35.15934698 -11.56571676 31.65390589 -11.59479523 28.14823151 C-11.62698473 24.23579957 -11.62783528 20.3237042 -11.62597656 16.41113281 C-11.64035767 15.24732086 -11.65473877 14.08350891 -11.66955566 12.88442993 C-11.66405701 11.81874786 -11.65855835 10.7530658 -11.65289307 9.65509033 C-11.65658024 8.72961018 -11.66026741 7.80413002 -11.66406631 6.85060501 C-10.36908974 0.3782915 -5.79482476 -0.09499713 0 0 Z " fill="#C6C6C7" transform="translate(11.171875,-0.390625)"/>
<path d="M0 0 C4.40557294 3.46219543 7.55117083 7.28416306 9.01171875 12.74609375 C9.90479525 20.62726368 10.11048674 28.29367054 5.01171875 34.74609375 C-0.27595479 40.59600093 -6.4698306 43.75278922 -14.36328125 44.18359375 C-20.63870156 43.9131015 -26.36148837 42.0675583 -31.10546875 37.875 C-37.36710469 31.0027896 -38.46075609 25.4208537 -38.296875 16.1953125 C-37.72451979 9.79797518 -35.39277836 5.82268867 -30.80078125 1.43359375 C-21.63831469 -5.76688854 -9.82571411 -6.19657019 0 0 Z " fill="#D4D4D5" transform="translate(75.98828125,45.25390625)"/>
<path d="M0 0 C14 0 14 0 17.34375 3.296875 C18.4921875 5.45703125 18.4921875 5.45703125 19.5 7.75 C19.86351562 8.46027344 20.22703125 9.17054687 20.6015625 9.90234375 C21.78623441 12.24269211 22.89114297 14.6227928 24 17 C25.98 20.96 27.96 24.92 30 29 C30.33 19.43 30.66 9.86 31 0 C34.63 0 38.26 0 42 0 C42 16.83 42 33.66 42 51 C37.71 51 33.42 51 29 51 C26.91417329 47.33473225 24.83127243 43.6678527 22.75 40 C22.16347656 38.97003906 21.57695312 37.94007812 20.97265625 36.87890625 C20.39902344 35.86699219 19.82539063 34.85507813 19.234375 33.8125 C18.71069336 32.89082031 18.18701172 31.96914062 17.64746094 31.01953125 C15.67060388 27.39626983 13.84585953 23.69171907 12 20 C11.67 30.23 11.34 40.46 11 51 C7.37 51 3.74 51 0 51 C0 34.17 0 17.34 0 0 Z " fill="#DBDCDC" transform="translate(256,39)"/>
<path d="M0 0 C4.95 0 9.9 0 15 0 C16.97578105 3.66602986 18.95138108 7.33215606 20.92651367 10.99853516 C21.5986066 12.24598897 22.27080651 13.49338514 22.94311523 14.74072266 C23.90897244 16.53272635 24.87444577 18.32493638 25.83984375 20.1171875 C26.42113037 21.19597168 27.00241699 22.27475586 27.60131836 23.38623047 C28.41913848 24.914522 29.22482199 26.44964397 30 28 C30.33 18.76 30.66 9.52 31 0 C34.63 0 38.26 0 42 0 C42 16.83 42 33.66 42 51 C37.71 51 33.42 51 29 51 C27.06026569 47.4075198 25.12110348 43.81473942 23.18334961 40.22119141 C22.52514885 39.0009624 21.86662589 37.78090714 21.20776367 36.56103516 C20.25613312 34.7989698 19.30578991 33.03620939 18.35546875 31.2734375 C17.78465576 30.21560059 17.21384277 29.15776367 16.62573242 28.06787109 C15.03690537 25.06964302 13.517481 22.034962 12 19 C11.67 29.56 11.34 40.12 11 51 C7.37 51 3.74 51 0 51 C0 34.17 0 17.34 0 0 Z " fill="#ACADAD" transform="translate(409,39)"/>
<path d="M0 0 C4.95 0 9.9 0 15 0 C16.97578105 3.66602986 18.95138108 7.33215606 20.92651367 10.99853516 C21.5986066 12.24598897 22.27080651 13.49338514 22.94311523 14.74072266 C23.90897244 16.53272635 24.87444577 18.32493638 25.83984375 20.1171875 C26.42113037 21.19597168 27.00241699 22.27475586 27.60131836 23.38623047 C28.41913848 24.914522 29.22482199 26.44964397 30 28 C30.33 18.76 30.66 9.52 31 0 C34.63 0 38.26 0 42 0 C42 16.83 42 33.66 42 51 C37.71 51 33.42 51 29 51 C27.06026569 47.4075198 25.12110348 43.81473942 23.18334961 40.22119141 C22.52514885 39.0009624 21.86662589 37.78090714 21.20776367 36.56103516 C20.25613312 34.7989698 19.30578991 33.03620939 18.35546875 31.2734375 C17.78465576 30.21560059 17.21384277 29.15776367 16.62573242 28.06787109 C15.03690537 25.06964302 13.517481 22.034962 12 19 C11.67 29.56 11.34 40.12 11 51 C7.37 51 3.74 51 0 51 C0 34.17 0 17.34 0 0 Z " fill="#CDCECE" transform="translate(307,39)"/>
<path d="M0 0 C4.29 0 8.58 0 13 0 C13 6.27 13 12.54 13 19 C18.94 19 24.88 19 31 19 C31 12.73 31 6.46 31 0 C34.96 0 38.92 0 43 0 C43 16.83 43 33.66 43 51 C39.04 51 35.08 51 31 51 C31 44.07 31 37.14 31 30 C25.06 30 19.12 30 13 30 C13 36.93 13 43.86 13 51 C8.71 51 4.42 51 0 51 C0 34.17 0 17.34 0 0 Z " fill="#E9EAEA" transform="translate(155,39)"/>
<path d="M0 0 C3.96 0 7.92 0 12 0 C12.01981934 0.90242432 12.03963867 1.80484863 12.06005859 2.73461914 C12.13855165 6.11003758 12.22525668 9.48504398 12.31738281 12.86010742 C12.35546427 14.31575518 12.390352 15.77149037 12.421875 17.22729492 C12.46798255 19.33023148 12.52589547 21.43257675 12.5859375 23.53515625 C12.6173584 24.797229 12.6487793 26.05930176 12.68115234 27.35961914 C13.0977787 32.1163692 13.53515799 36.53515799 17 40 C19.93058628 40.27910345 22.15548273 40.47797216 25 40 C28.52138882 36.81939074 28.9278832 33.19125642 29.20532227 28.60839844 C29.24683707 27.27552282 29.28360893 25.94249361 29.31640625 24.609375 C29.33718735 23.90476135 29.35796844 23.20014771 29.37937927 22.47418213 C29.44453837 20.23288319 29.50360248 17.99147136 29.5625 15.75 C29.60571726 14.22655103 29.64933257 12.70311329 29.69335938 11.1796875 C29.80018491 7.45324409 29.90154639 3.72667506 30 0 C33.96 0 37.92 0 42 0 C42.07463717 4.83801979 42.12883014 9.67569804 42.16479492 14.51416016 C42.17980136 16.15712326 42.20021312 17.80004686 42.22631836 19.44287109 C42.26306359 21.81618042 42.27980772 24.18895625 42.29296875 26.5625 C42.30845261 27.28679199 42.32393646 28.01108398 42.33988953 28.75732422 C42.34197294 35.19459624 40.71272511 40.3423231 37.1875 45.8125 C31.71816362 51.28183638 25.44607469 51.97878611 18 52 C11.61373147 51.48820845 7.13565567 48.8484357 3 44 C-1.08662064 35.31593115 -0.33739758 26.32071166 -0.1875 16.9375 C-0.17242751 15.29232994 -0.15874364 13.64714655 -0.14648438 12.00195312 C-0.11367782 8.00096859 -0.06203766 4.00063369 0 0 Z " fill="#BDBEBE" transform="translate(358,39)"/>
<path d="M0 0 C5.61 0 11.22 0 17 0 C19.13978491 6.94064276 21.27593994 13.88238804 23.40869141 20.82519531 C24.13522478 23.18846045 24.86276118 25.55141747 25.59130859 27.9140625 C26.63640996 31.30388787 27.67793655 34.69479349 28.71875 38.0859375 C29.04685669 39.14743011 29.37496338 40.20892273 29.7130127 41.30258179 C30.01332397 42.28344757 30.31363525 43.26431335 30.62304688 44.27490234 C31.02275696 45.57396011 31.02275696 45.57396011 31.43054199 46.89926147 C32 49 32 49 32 51 C27.71 51 23.42 51 19 51 C16.20446325 44.9100307 14.24360993 38.66015612 12.3125 32.25 C11.83200195 30.68958984 11.83200195 30.68958984 11.34179688 29.09765625 C11.03951172 28.10121094 10.73722656 27.10476562 10.42578125 26.078125 C10.15161377 25.17481445 9.87744629 24.27150391 9.5949707 23.34082031 C9 21 9 21 9 18 C8.34 18 7.68 18 7 18 C6.89768066 18.58120605 6.79536133 19.16241211 6.68994141 19.76123047 C5.39136003 26.71390902 3.48610136 33.37977369 1.375 40.125 C1.05015625 41.176875 0.7253125 42.22875 0.390625 43.3125 C-0.40184279 45.87636638 -1.20029605 48.43838145 -2 51 C-6.29 51 -10.58 51 -15 51 C-13.64350895 44.51803327 -11.94514008 38.24922942 -9.9609375 31.93359375 C-9.67521881 31.01409439 -9.38950012 30.09459503 -9.09512329 29.14723206 C-8.19181021 26.24291777 -7.28349431 23.3401972 -6.375 20.4375 C-5.75747961 18.45518179 -5.14028893 16.47276085 -4.5234375 14.49023438 C-3.0194325 9.65896061 -1.51094221 4.82910848 0 0 Z " fill="#E6E6E6" transform="translate(218,39)"/>
<path d="M0 0 C10.56 0 21.12 0 32 0 C32 3.3 32 6.6 32 10 C25.4 10 18.8 10 12 10 C12 12.97 12 15.94 12 19 C18.27 19 24.54 19 31 19 C31 22.63 31 26.26 31 30 C24.73 30 18.46 30 12 30 C12 33.3 12 36.6 12 40 C18.93 40 25.86 40 33 40 C33 43.63 33 47.26 33 51 C22.11 51 11.22 51 0 51 C0 34.17 0 17.34 0 0 Z " fill="#9C9D9D" transform="translate(460,39)"/>
<path d="M0 0 C0.66 0 1.32 0 2 0 C3.69238281 2.15209961 3.69238281 2.15209961 5.703125 5.15234375 C6.43660156 6.23966797 7.17007813 7.32699219 7.92578125 8.44726562 C8.7006697 9.61057793 9.47540837 10.77399003 10.25 11.9375 C11.00849209 13.06617378 11.76759997 14.19443401 12.52734375 15.32226562 C14.69367913 18.54233671 16.84793584 21.77037095 19 25 C19.62197266 25.93215332 20.24394531 26.86430664 20.88476562 27.82470703 C22.25744573 29.88251742 23.62926196 31.9408957 25 34 C22.25724933 35.41112015 19.72783891 36.38948202 16.75 37.1875 C9.53568277 39.53274834 4.5924616 44.41382039 1 51 C0.34 51 -0.32 51 -1 51 C-1.02526787 43.89755001 -1.04283201 36.79511152 -1.05493164 29.69262695 C-1.05997349 27.27432828 -1.06680678 24.85603267 -1.07543945 22.43774414 C-1.08751157 18.97020717 -1.09322963 15.50271034 -1.09765625 12.03515625 C-1.10281754 10.94662857 -1.10797882 9.85810089 -1.11329651 8.73658752 C-1.11337204 7.73562546 -1.11344757 6.73466339 -1.11352539 5.70336914 C-1.115746 4.81734512 -1.11796661 3.93132111 -1.12025452 3.01844788 C-1 1 -1 1 0 0 Z " fill="#D3D3D4" transform="translate(36,3)"/>
<path d="M0 0 C0.33 0 0.66 0 1 0 C1 16.83 1 33.66 1 51 C-3.06083638 48.96958181 -3.86507447 48.18389599 -6.20703125 44.5625 C-6.79419922 43.66660156 -7.38136719 42.77070312 -7.98632812 41.84765625 C-8.58896484 40.90792969 -9.19160156 39.96820313 -9.8125 39 C-11.00532045 37.16589222 -12.199329 35.33255656 -13.39453125 33.5 C-13.98186035 32.59378906 -14.56918945 31.68757813 -15.17431641 30.75390625 C-17.59662161 27.10004121 -20.14637105 23.54350316 -22.72143555 19.99609375 C-24 18 -24 18 -24 16 C-23.14277344 15.78085938 -22.28554688 15.56171875 -21.40234375 15.3359375 C-11.06590547 12.46923647 -5.59302315 9.03488356 0 0 Z " fill="#D1D1D2" transform="translate(86,76)"/>
</svg>