<?xml version='1.0' encoding='UTF-8'?>
<svg xmlns="http://www.w3.org/2000/svg" version="1.1" width="123" height="129" viewBox="0.0000 0.0000 123.0000 129.0000">
<path d="M0 0 C0.73381897 -0.01710022 1.46763794 -0.03420044 2.22369385 -0.05181885 C3.77692741 -0.08013891 5.33034042 -0.09975921 6.88378906 -0.11132812 C9.24609747 -0.14038481 11.60047857 -0.23335124 13.9609375 -0.328125 C24.81938138 -0.56592225 24.81938138 -0.56592225 28.86865234 2.23974609 C30.73754633 4.58901545 32.10216338 6.96196895 33.515625 9.609375 C34.83734888 11.57992083 36.17409029 13.54045314 37.5234375 15.4921875 C38.8994063 17.57055562 40.27176079 19.65132076 41.640625 21.734375 C43.66643182 24.80527095 45.69478189 27.87419429 47.73535156 30.93530273 C48.81686543 32.55979827 49.88916007 34.19055012 50.94433594 35.83227539 C53.4049418 39.53518948 55.24136992 41.48120586 59.515625 42.796875 C66.83726169 45.41097047 70.17780907 48.68379217 73.52734375 55.68359375 C74.96826394 59.94940095 75.07651662 64.05337039 75.08203125 68.53125 C75.39588397 72.36840293 75.39588397 72.36840293 79.515625 77.609375 C79.845625 52.199375 80.175625 26.789375 80.515625 0.609375 C91.075625 0.609375 101.635625 0.609375 112.515625 0.609375 C112.58330962 16.98592885 112.63858781 33.36236362 112.67106152 49.73901844 C112.68653946 57.34274612 112.70764658 64.94638082 112.74194336 72.55004883 C112.77181747 79.17635223 112.79119326 85.8025883 112.79789048 92.42895716 C112.80180616 95.93855573 112.81102747 99.44796165 112.83281517 102.95749855 C112.85692357 106.87250034 112.85759627 110.78731256 112.85620117 114.70239258 C112.866987 115.8697998 112.87777283 117.03720703 112.8888855 118.23999023 C112.88476151 119.30429764 112.88063751 120.36860504 112.87638855 121.46516418 C112.87915393 122.39156613 112.88191931 123.31796808 112.88476849 124.27244282 C112.515625 126.609375 112.515625 126.609375 111.20149708 128.39968395 C108.44149524 130.38011269 105.34881918 130.17974243 102.06640625 130.25390625 C101.33495895 130.27337814 100.60351166 130.29285004 99.84989929 130.31291199 C98.30088917 130.34561527 96.7516695 130.36942542 95.20239258 130.38500977 C92.85039032 130.42152929 90.5078826 130.52732207 88.15820312 130.63476562 C77.29015447 130.90697483 77.29015447 130.90697483 72.90039062 127.69702148 C70.79310124 125.11355596 69.15750742 122.50860608 67.515625 119.609375 C66.31416925 117.85155456 65.10326084 116.10015625 63.8828125 114.35546875 C62.71392503 112.58912098 61.54985072 110.81957861 60.390625 109.046875 C59.80925781 108.16580078 59.22789063 107.28472656 58.62890625 106.37695312 C58.05269531 105.50361328 57.47648437 104.63027344 56.8828125 103.73046875 C56.31925049 102.87936523 55.75568848 102.02826172 55.17504883 101.15136719 C54.06952228 99.45786382 52.98581759 97.74991146 51.92456055 96.02832031 C51.41965088 95.22362305 50.91474121 94.41892578 50.39453125 93.58984375 C49.9569751 92.8733667 49.51941895 92.15688965 49.06860352 91.41870117 C46.5939822 88.53559811 43.50448921 87.79269803 39.984375 86.62109375 C34.64558595 84.43320393 31.49788499 80.27921698 28.640625 75.421875 C27.3571537 71.07233338 27.10860307 67.09312894 27.01953125 62.57421875 C26.59227642 58.84156192 26.59227642 58.84156192 22.515625 53.609375 C22.185625 78.689375 21.855625 103.769375 21.515625 129.609375 C10.955625 129.609375 0.395625 129.609375 -10.484375 129.609375 C-10.55205962 113.23282115 -10.60733781 96.85638638 -10.63981152 80.47973156 C-10.65528946 72.87600388 -10.67639658 65.27236918 -10.71069336 57.66870117 C-10.74056747 51.04239777 -10.75994326 44.4161617 -10.76664048 37.78979284 C-10.77055616 34.28019427 -10.77977747 30.77078835 -10.80156517 27.26125145 C-10.82567357 23.34624966 -10.82634627 19.43143744 -10.82495117 15.51635742 C-10.835737 14.3489502 -10.84652283 13.18154297 -10.8576355 11.97875977 C-10.85144951 10.38229866 -10.85144951 10.38229866 -10.84513855 8.75358582 C-10.84790393 7.82718387 -10.85066931 6.90078192 -10.85351849 5.94630718 C-10.484375 3.609375 -10.484375 3.609375 -9.1712389 1.81807423 C-6.40129896 -0.16668831 -3.29148239 0.05941846 0 0 Z " fill="#002B68" transform="translate(10.484375,-0.609375)"/>
<path d="M0 0 C0.73381897 -0.01710022 1.46763794 -0.03420044 2.22369385 -0.05181885 C3.77692741 -0.08013891 5.33034042 -0.09975921 6.88378906 -0.11132812 C9.24609747 -0.14038481 11.60047857 -0.23335124 13.9609375 -0.328125 C24.81938138 -0.56592225 24.81938138 -0.56592225 28.86865234 2.23974609 C30.73754633 4.58901545 32.10216338 6.96196895 33.515625 9.609375 C34.83734888 11.57992083 36.17409029 13.54045314 37.5234375 15.4921875 C38.8994063 17.57055562 40.27176079 19.65132076 41.640625 21.734375 C43.01714645 23.82102715 44.3947244 25.90698279 45.7734375 27.9921875 C46.41442383 28.96188477 47.05541016 29.93158203 47.71582031 30.93066406 C49.27367007 33.24926519 50.86896014 35.52742318 52.5078125 37.7890625 C54.515625 40.609375 54.515625 40.609375 54.515625 41.609375 C53.75378906 41.68414062 52.99195313 41.75890625 52.20703125 41.8359375 C44.83743768 42.77438762 38.86784 44.21346845 33.515625 49.609375 C31.4772258 52.81530801 29.90470845 56.07733367 28.515625 59.609375 C27.855625 59.609375 27.195625 59.609375 26.515625 59.609375 C25.195625 57.629375 23.875625 55.649375 22.515625 53.609375 C22.185625 78.689375 21.855625 103.769375 21.515625 129.609375 C10.955625 129.609375 0.395625 129.609375 -10.484375 129.609375 C-10.55205962 113.23282115 -10.60733781 96.85638638 -10.63981152 80.47973156 C-10.65528946 72.87600388 -10.67639658 65.27236918 -10.71069336 57.66870117 C-10.74056747 51.04239777 -10.75994326 44.4161617 -10.76664048 37.78979284 C-10.77055616 34.28019427 -10.77977747 30.77078835 -10.80156517 27.26125145 C-10.82567357 23.34624966 -10.82634627 19.43143744 -10.82495117 15.51635742 C-10.835737 14.3489502 -10.84652283 13.18154297 -10.8576355 11.97875977 C-10.85144951 10.38229866 -10.85144951 10.38229866 -10.84513855 8.75358582 C-10.84790393 7.82718387 -10.85066931 6.90078192 -10.85351849 5.94630718 C-10.484375 3.609375 -10.484375 3.609375 -9.1712389 1.81807423 C-6.40129896 -0.16668831 -3.29148239 0.05941846 0 0 Z " fill="#002B68" transform="translate(10.484375,-0.609375)"/>
<path d="M0 0 C4.60214839 3.49988558 7.42455475 8.269758 9.234375 13.69921875 C10.12416093 22.05049531 9.31134589 28.84042634 4.234375 35.69921875 C-1.21070851 40.99061039 -6.91025006 43.97372235 -14.578125 44.07421875 C-21.38935627 43.923971 -25.78060332 42.53055615 -30.73828125 37.828125 C-36.54892277 31.51636039 -38.31619045 26.41890774 -38.13671875 17.8359375 C-37.31204265 10.86525427 -34.31045432 5.55561863 -28.828125 1.19921875 C-19.73011102 -4.78720681 -9.58017324 -5.32401347 0 0 Z " fill="#001B53" transform="translate(75.765625,44.30078125)"/>
<path d="M0 0 C4.62 0 9.24 0 14 0 C16.67084497 2.99271603 17.58286776 4.46880908 19 8 C19.86180019 9.55979256 20.7425084 11.10926923 21.640625 12.6484375 C22.51262511 14.2227371 23.38240731 15.79826718 24.25 17.375 C24.69601562 18.18066406 25.14203125 18.98632812 25.6015625 19.81640625 C28.8139881 25.62797619 28.8139881 25.62797619 30 28 C30.33 18.76 30.66 9.52 31 0 C34.63 0 38.26 0 42 0 C42 16.83 42 33.66 42 51 C37.71 51 33.42 51 29 51 C26.89929186 47.22863794 24.79971608 43.45664843 22.70117188 39.68408203 C21.98761322 38.40168374 21.27374937 37.11945522 20.55957031 35.83740234 C19.53109081 33.99100948 18.5037226 32.1440021 17.4765625 30.296875 C16.85861816 29.18666992 16.24067383 28.07646484 15.60400391 26.93261719 C14.35420313 24.6475933 13.16476059 22.32952118 12 20 C11.67 30.23 11.34 40.46 11 51 C7.37 51 3.74 51 0 51 C0 34.17 0 17.34 0 0 Z " fill="#666464" transform="translate(409,38)"/>
<path d="M0 0 C14 0 14 0 16.8359375 2.31640625 C17.34382813 3.38761719 17.85171875 4.45882812 18.375 5.5625 C18.97054688 6.73296875 19.56609375 7.9034375 20.1796875 9.109375 C20.47069336 9.73779297 20.76169922 10.36621094 21.06152344 11.01367188 C22.36455808 13.77160367 23.83302854 16.42988699 25.30126953 19.10253906 C26.90043605 22.05073771 28.4447658 25.02839179 30 28 C30.33 18.76 30.66 9.52 31 0 C34.63 0 38.26 0 42 0 C42 16.83 42 33.66 42 51 C37.71 51 33.42 51 29 51 C26.89929186 47.22863794 24.79971608 43.45664843 22.70117188 39.68408203 C21.98761322 38.40168374 21.27374937 37.11945522 20.55957031 35.83740234 C19.53109081 33.99100948 18.5037226 32.1440021 17.4765625 30.296875 C16.85861816 29.18666992 16.24067383 28.07646484 15.60400391 26.93261719 C14.35420313 24.6475933 13.16476059 22.32952118 12 20 C11.67 30.23 11.34 40.46 11 51 C7.37 51 3.74 51 0 51 C0 34.17 0 17.34 0 0 Z " fill="#666464" transform="translate(307,38)"/>
<path d="M0 0 C4.62 0 9.24 0 14 0 C15.91939846 3.331786 17.83558321 6.66535309 19.75 10 C20.28882813 10.93457031 20.82765625 11.86914062 21.3828125 12.83203125 C21.91132813 13.75371094 22.43984375 14.67539062 22.984375 15.625 C23.46616211 16.46289062 23.94794922 17.30078125 24.44433594 18.1640625 C26.39651516 21.72283743 28.18473788 25.36947577 30 29 C30.33 19.43 30.66 9.86 31 0 C34.63 0 38.26 0 42 0 C42 16.83 42 33.66 42 51 C37.71 51 33.42 51 29 51 C26.20282817 48.18921663 25.17047853 46.806753 23.625 43.375 C23.23199707 42.6126001 22.83899414 41.8502002 22.43408203 41.06469727 C21.24214422 38.73006124 20.1213298 36.36918133 19 34 C17.97607846 31.9779815 16.93703537 29.96439977 15.89550781 27.95141602 C14.56142353 25.3186741 13.28627111 22.65642946 12 20 C11.67 30.23 11.34 40.46 11 51 C7.37 51 3.74 51 0 51 C0 34.17 0 17.34 0 0 Z " fill="#666464" transform="translate(256,38)"/>
<path d="M0 0 C4.29 0 8.58 0 13 0 C13 6.27 13 12.54 13 19 C18.94 19 24.88 19 31 19 C31 12.73 31 6.46 31 0 C34.96 0 38.92 0 43 0 C43 16.83 43 33.66 43 51 C39.04 51 35.08 51 31 51 C31 44.07 31 37.14 31 30 C25.06 30 19.12 30 13 30 C13 36.93 13 43.86 13 51 C8.71 51 4.42 51 0 51 C0 34.17 0 17.34 0 0 Z " fill="#666464" transform="translate(155,38)"/>
<path d="M0 0 C3.96 0 7.92 0 12 0 C12.01981934 0.90242432 12.03963867 1.80484863 12.06005859 2.73461914 C12.13855165 6.11003758 12.22525668 9.48504398 12.31738281 12.86010742 C12.35546427 14.31575518 12.390352 15.77149037 12.421875 17.22729492 C12.46798255 19.33023148 12.52589547 21.43257675 12.5859375 23.53515625 C12.6173584 24.797229 12.6487793 26.05930176 12.68115234 27.35961914 C13.08414184 31.96067301 13.65608216 36.34594727 16.625 40 C20.29089443 41.5435345 23.12145588 40.71106642 27 40 C28.48997832 34.62562205 29.27831906 29.82947868 29.4140625 24.21875 C29.43342865 23.51979614 29.4527948 22.82084229 29.4727478 22.10070801 C29.5318215 19.90059036 29.57863473 17.70041828 29.625 15.5 C29.66324657 13.99477071 29.70230201 12.48956175 29.7421875 10.984375 C29.83746125 7.3231043 29.92175356 3.66167878 30 0 C33.96 0 37.92 0 42 0 C42.07461471 4.98043609 42.12881987 9.96054089 42.16479492 14.94140625 C42.17980505 16.63287022 42.20021963 18.32429578 42.22631836 20.015625 C42.26304686 22.45843024 42.27980411 24.9007173 42.29296875 27.34375 C42.30845261 28.08991577 42.32393646 28.83608154 42.33988953 29.6048584 C42.34178482 35.62833987 41.24502641 41.18420417 37.38671875 46.0234375 C30.35216486 51.61873784 23.93909234 52.96705853 15 52 C9.63029116 50.69273652 6.07674521 48.71278062 3 44.0625 C-0.13696994 38.58369486 -0.1407821 33.03677067 -0.09765625 26.85546875 C-0.09553383 25.7007885 -0.09553383 25.7007885 -0.09336853 24.52278137 C-0.08779606 22.07764712 -0.07524871 19.63260632 -0.0625 17.1875 C-0.05748144 15.52408987 -0.05291915 13.8606783 -0.04882812 12.19726562 C-0.03783566 8.13147472 -0.0205901 4.06575317 0 0 Z " fill="#666464" transform="translate(358,38)"/>
<path d="M0 0 C5.28 0 10.56 0 16 0 C19.81798297 8.896271 22.60994351 18.05879029 25.42871094 27.30712891 C26.25696788 30.02284653 27.09286304 32.73613033 27.9296875 35.44921875 C28.45878124 37.17434186 28.9874431 38.8995975 29.515625 40.625 C29.8905307 41.84207642 29.8905307 41.84207642 30.27301025 43.08374023 C32 48.76886746 32 48.76886746 32 51 C27.38 51 22.76 51 18 51 C16.71294253 46.94474748 15.4294606 42.8887037 14.15478516 38.82958984 C13.72031273 37.44971061 13.28380777 36.07046961 12.84521484 34.69189453 C12.21433803 32.70770827 11.5908597 30.7213249 10.96875 28.734375 C10.59169922 27.54038086 10.21464844 26.34638672 9.82617188 25.11621094 C9 22 9 22 9 18 C8.34 18 7.68 18 7 18 C6.89768066 18.58120605 6.79536133 19.16241211 6.68994141 19.76123047 C5.39136003 26.71390902 3.48610136 33.37977369 1.375 40.125 C1.05015625 41.176875 0.7253125 42.22875 0.390625 43.3125 C-0.40184279 45.87636638 -1.20029605 48.43838145 -2 51 C-6.29 51 -10.58 51 -15 51 C-12.43446509 40.08972524 -9.13974886 29.44744101 -5.8125 18.75 C-5.24775029 16.92587304 -4.68329489 15.10165495 -4.11914062 13.27734375 C-2.74948246 8.85050504 -1.37585458 4.4249166 0 0 Z " fill="#666464" transform="translate(218,38)"/>
<path d="M0 0 C10.56 0 21.12 0 32 0 C32 3.3 32 6.6 32 10 C25.4 10 18.8 10 12 10 C12 13.3 12 16.6 12 20 C18.27 20 24.54 20 31 20 C31 23.3 31 26.6 31 30 C24.73 30 18.46 30 12 30 C12 33.63 12 37.26 12 41 C18.93 41 25.86 41 33 41 C33 44.3 33 47.6 33 51 C22.11 51 11.22 51 0 51 C0 34.17 0 17.34 0 0 Z " fill="#666464" transform="translate(460,38)"/>
<path d="M0 0 C6.83078073 6.65102335 6.83078073 6.65102335 7.24050903 9.9172821 C7.2338472 10.99983025 7.2338472 10.99983025 7.22705078 12.10424805 C7.22689972 12.92487228 7.22674866 13.74549652 7.22659302 14.59098816 C7.21627045 15.47232925 7.20594788 16.35367035 7.1953125 17.26171875 C7.1924826 18.16751175 7.18965271 19.07330475 7.18673706 20.00654602 C7.17553964 22.90033158 7.15043589 25.79380794 7.125 28.6875 C7.11496963 30.64908407 7.10584388 32.610673 7.09765625 34.57226562 C7.07560173 39.3816296 7.04107489 44.19076237 7 49 C2.52762686 49.60508329 -1.5451058 49.81697857 -6 49 C-9.44481672 46.25487723 -11.32289172 42.88417388 -13.4375 39.0625 C-14.27571289 37.67321289 -14.27571289 37.67321289 -15.13085938 36.25585938 C-16.23923463 34.41716935 -17.33000445 32.56773783 -18.40185547 30.70751953 C-20.43416103 27.26445985 -22.65393009 23.97109247 -24.91821289 20.67749023 C-26 19 -26 19 -26 18 C-25.23816406 17.92523438 -24.47632813 17.85046875 -23.69140625 17.7734375 C-16.32181268 16.83498738 -10.352215 15.39590655 -5 10 C-2.9616008 6.79406699 -1.38908345 3.53204133 0 0 Z " fill="#A0A0A0" transform="translate(84,70)"/>
<path d="M0 0 C3.10726137 0.01612068 5.19929561 0.19043223 7.59228516 2.28320312 C10.74239768 5.89995907 13.31194991 9.91871934 15.85253906 13.97705078 C17.03604911 15.85858652 18.26311223 17.69667145 19.5234375 19.52734375 C25.05874234 27.61048746 25.05874234 27.61048746 27.125 32 C26.36316406 32.07476562 25.60132812 32.14953125 24.81640625 32.2265625 C17.44681268 33.16501262 11.477215 34.60409345 6.125 40 C4.0866008 43.20593301 2.51408345 46.46795867 1.125 50 C0.465 50 -0.195 50 -0.875 50 C-5.68709092 44.63691733 -6.58874883 39.47622505 -6.3984375 32.50390625 C-6.39373444 31.62975571 -6.38903137 30.75560516 -6.38418579 29.85496521 C-6.36299791 27.08997732 -6.30642264 24.32696838 -6.25 21.5625 C-6.23347718 19.68035657 -6.21913318 17.79819267 -6.20703125 15.91601562 C-6.05756459 0.8236915 -6.05756459 0.8236915 0 0 Z " fill="#AEAFAF" transform="translate(37.875,9)"/>
<path d="M0 0 C0.99 0.66 1.98 1.32 3 2 C3.95454555 6.78132725 3.51015871 10.96006109 1.375 15.3125 C-2.84569527 20.08854991 -7.2991654 24.64836277 -13.984375 25.1484375 C-17.24506458 25.20793913 -19.89423368 25.03525544 -23 24 C-24.6875 20.9375 -24.6875 20.9375 -26 18 C-25.23816406 17.92523438 -24.47632813 17.85046875 -23.69140625 17.7734375 C-16.32181268 16.83498738 -10.352215 15.39590655 -5 10 C-2.9616008 6.79406699 -1.38908345 3.53204133 0 0 Z " fill="#8E8E8E" transform="translate(84,70)"/>
<path d="M0 0 C0.33 0 0.66 0 1 0 C1.6120761 7.22249793 1.6120761 7.22249793 -1.3125 10.9375 C-4 13 -4 13 -7 14 C-7 14.66 -7 15.32 -7 16 C-10.08298051 17.02766017 -12.33130426 17.16598738 -15.5625 17.1875 C-17.01849609 17.20876953 -17.01849609 17.20876953 -18.50390625 17.23046875 C-21 17 -21 17 -23 15 C-22.38253906 14.92523438 -21.76507813 14.85046875 -21.12890625 14.7734375 C-13.76400583 13.6300283 -7.14769698 11.23369486 -2.55078125 5.05078125 C-1.30550847 2.96548163 -1.30550847 2.96548163 0 0 Z " fill="#666464" transform="translate(83,73)"/>
<path d="M0 0 C1.921875 0.08984375 1.921875 0.08984375 4 1 C6.32617195 3.82235083 8.06711609 6.88102824 10 10 C4.06 10.495 4.06 10.495 -2 11 C-2.1953125 4.1640625 -2.1953125 4.1640625 -2 2 C-1.34 1.34 -0.68 0.68 0 0 Z " fill="#636161" transform="translate(34,0)"/>
<path d="M0 0 C3.96 0 7.92 0 12 0 C12.1953125 6.0546875 12.1953125 6.0546875 12 8 C11.34 8.66 10.68 9.32 10 10 C8.078125 9.91015625 8.078125 9.91015625 6 9 C3.67382805 6.17764917 1.93288391 3.11897176 0 0 Z " fill="#686767" transform="translate(79,119)"/>
<path d="M0 0 C2.83145054 4.24717581 3.442453 8.26916106 2.63671875 13.2421875 C0.59428128 20.48469582 -3.79591365 25.59693524 -9.75 30.0625 C-12 31 -12 31 -15 30 C-9.25 26 -9.25 26 -7 26 C-6.67 25.01 -6.34 24.02 -6 23 C-5.34 23 -4.68 23 -4 23 C-3.896875 22.46375 -3.79375 21.9275 -3.6875 21.375 C-3 19 -3 19 -1.4375 16.5625 C0.75081717 11.13927919 0.2314205 5.77694146 0 0 Z " fill="#000A3B" transform="translate(76,51)"/>
<path d="M0 0 C0.33 0.66 0.66 1.32 1 2 C-1.38216765 5.83793677 -3.77383913 7.43475523 -8 9 C-13.04901698 9.57881147 -17.41039063 9.36883064 -22 7 C-18.99686252 5.49843126 -16.20932478 5.90718796 -12.875 5.9375 C-11.59367187 5.94652344 -10.31234375 5.95554687 -8.9921875 5.96484375 C-8.00476563 5.97644531 -7.01734375 5.98804687 -6 6 C-6 5.34 -6 4.68 -6 4 C-4.03852126 2.61061923 -2.03833424 1.2739589 0 0 Z " fill="#7A7979" transform="translate(82,83)"/>
<path d="M0 0 C2.41773096 2.03996049 3.84164362 3.2792456 4.53125 6.41796875 C3.79018238 10.01977532 2.02720957 11.67999003 -0.5 14.3125 C-1.3353125 15.19550781 -2.170625 16.07851562 -3.03125 16.98828125 C-4.00578125 17.98408203 -4.00578125 17.98408203 -5 19 C-5.66 18.67 -6.32 18.34 -7 18 C-6.21625 17.443125 -5.4325 16.88625 -4.625 16.3125 C-0.33231422 12.15358063 -0.5523749 5.63092619 0 0 Z " fill="#B1B2B2" transform="translate(87,74)"/>
<path d="M0 0 C0.99 0.33 1.98 0.66 3 1 C1.53966649 5.38100054 -1.31561114 8.04399551 -5.3125 10.3125 C-6.1478125 10.6528125 -6.1478125 10.6528125 -7 11 C-5.5140084 6.40693504 -3.14985318 3.56430755 0 0 Z " fill="#002C6B" transform="translate(50,48)"/>
<path d="M0 0 C2.64 0 5.28 0 8 0 C7.67 1.32 7.34 2.64 7 4 C5.1875 4.6875 5.1875 4.6875 3 5 C1.25 3.6875 1.25 3.6875 0 2 C0 1.34 0 0.68 0 0 Z " fill="#515051" transform="translate(83,124)"/>
<path d="M0 0 C1.9375 0.1875 1.9375 0.1875 4 1 C5.25 3.0625 5.25 3.0625 6 5 C3.36 5 0.72 5 -2 5 C-1.125 1.125 -1.125 1.125 0 0 Z " fill="#444344" transform="translate(34,0)"/>
<path d="M0 0 C0.33 0.66 0.66 1.32 1 2 C-5 8 -5 8 -8.5625 8.0625 C-9.696875 8.041875 -10.83125 8.02125 -12 8 C-8 5.33333333 -4 2.66666667 0 0 Z " fill="#504D4E" transform="translate(79,80)"/>
<path d="M0 0 C0.556875 0.144375 1.11375 0.28875 1.6875 0.4375 C6.94136317 1.71546672 11.59708529 2.19646963 17 2 C17.33 2.66 17.66 3.32 18 4 C15.7541395 4.30325122 13.5028531 4.56652522 11.25 4.8125 C9.99703125 4.96332031 8.7440625 5.11414063 7.453125 5.26953125 C4 5 4 5 1.546875 2.51171875 C1.03640625 1.68285156 0.5259375 0.85398437 0 0 Z " fill="#000A3B" transform="translate(43,79)"/>
</svg>